Coordinates
version=1
nRows=41
nColumns=38
inDegrees=no

Units are S.I. units (second, meters, Newtons, ...)
If the header above contains a line with 'inDegrees', this indicates whether rotational values are in degrees (yes) or radians (no).

endheader
time	pelvis_tilt	pelvis_list	pelvis_rotation	pelvis_tx	pelvis_ty	pelvis_tz	hip_flexion_r	hip_adduction_r	hip_rotation_r	knee_angle_r	ankle_angle_r	subtalar_angle_r	mtp_angle_r	hip_flexion_l	hip_adduction_l	hip_rotation_l	knee_angle_l	ankle_angle_l	subtalar_angle_l	mtp_angle_l	lumbar_extension	lumbar_bending	lumbar_rotation	arm_flex_r	arm_add_r	arm_rot_r	elbow_flex_r	pro_sup_r	wrist_flex_r	wrist_dev_r	arm_flex_l	arm_add_l	arm_rot_l	elbow_flex_l	pro_sup_l	wrist_flex_l	wrist_dev_l
0	0.782181	1.42756	0.851443	0.575626	-0.644565	1.04728	0.404505	-0.014747	-0.263172	0.317841	-0.165728	0	0	-0.0978595	-0.0826438	-0.347205	0.115101	-0.170008	0	0	-0.144065	0.0979332	-0.11476	-0.214831	-0.24634	0.00378182	0.654226	1.5708	0	0	-0.101139	-0.381973	0.158774	1.10418	1.29038	0	0
0.01	0.70534	1.42191	0.930522	0.576004	-0.632522	1.04389	0.417985	-0.0110659	-0.247962	0.245878	-0.183801	0	0	-0.0996071	-0.0773621	-0.339307	0.111388	-0.164244	0	0	-0.126056	0.0903224	-0.117118	-0.214092	-0.242942	0.00893589	0.635521	1.5708	0	0	-0.0937727	-0.387594	0.160692	1.11444	1.29412	0	0
0.02	0.6524	1.41843	0.98577	0.576302	-0.619498	1.04048	0.424685	-0.00756115	-0.236627	0.172587	-0.19505	0	0	-0.105722	-0.0735338	-0.335509	0.110841	-0.158803	0	0	-0.117296	0.0846533	-0.118715	-0.214013	-0.242369	0.0179346	0.622149	1.5708	0	0	-0.0877935	-0.393127	0.160694	1.12919	1.29877	0	0
0.03	0.602319	1.41548	1.03743	0.57663	-0.606176	1.03679	0.42878	-0.00473487	-0.219255	0.0980598	-0.207199	0	0	-0.113513	-0.0694879	-0.334806	0.110111	-0.1524	0	0	-0.110873	0.0788371	-0.118848	-0.213663	-0.23747	0.0122334	0.608897	1.5708	0	0	-0.081773	-0.398436	0.160706	1.14452	1.30334	0	0
0.04	0.546233	1.4124	1.09466	0.576952	-0.592659	1.03276	0.432716	-0.00429632	-0.195754	0.0259076	-0.223464	0	0	-0.12068	-0.064313	-0.335213	0.110761	-0.138733	0	0	-0.103973	0.0716112	-0.119868	-0.211133	-0.238815	0.0289877	0.594371	1.5708	0	0	-0.0776113	-0.401988	0.156233	1.15957	1.31379	0	0
0.05	0.503841	1.41211	1.13904	0.577019	-0.578984	1.02886	0.441167	-0.00648724	-0.199205	0	-0.22372	0	0	-0.13196	-0.0593592	-0.335642	0.110825	-0.141425	0	0	-0.102023	0.0659514	-0.119085	-0.21351	-0.235409	0.0207513	0.588072	1.5708	0	0	-0.0687604	-0.407878	0.161687	1.17216	1.31203	0	0
0.06	0.450197	1.40885	1.19473	0.577185	-0.565019	1.02462	0.456634	-0.0103424	-0.211362	0	-0.195432	0	0	-0.13732	-0.0552147	-0.339967	0.118438	-0.117617	0	0	-0.0952054	0.0580878	-0.122215	-0.206405	-0.247392	0.0793433	0.569483	1.5568	0	0	-0.0674783	-0.409006	0.152379	1.18546	1.33165	0	0
0.07	0.418505	1.40857	1.2287	0.577355	-0.550883	1.02073	0.465974	-0.0123147	-0.224123	0	-0.183078	0	0	-0.147681	-0.0533137	-0.343043	0.124872	-0.112551	0	0	-0.0941872	0.0536791	-0.121664	-0.205681	-0.250173	0.0956537	0.560548	1.55014	0	0	-0.0596791	-0.411714	0.154087	1.19447	1.3374	0	0
0.08	0.394451	1.40851	1.25538	0.577567	-0.536501	1.01693	0.473333	-0.013396	-0.234676	0	-0.171754	0	0	-0.157817	-0.0533809	-0.345997	0.133737	-0.108738	0	0	-0.0939422	0.0506529	-0.120744	-0.205399	-0.25328	0.111692	0.552933	1.54184	0	0	-0.0514624	-0.413643	0.156631	1.2012	1.34241	0	0
0.09	0.385274	1.4085	1.26732	0.577696	-0.521919	1.01334	0.480696	-0.014058	-0.241103	0	-0.164268	0	0	-0.167015	-0.0539047	-0.346072	0.145032	-0.106508	0	0	-0.0940667	0.0500582	-0.119836	-0.205288	-0.257006	0.12581	0.547318	1.53057	0	0	-0.0438798	-0.414383	0.159329	1.2058	1.34602	0	0
0.1	0.372878	1.40806	1.2833	0.577938	-0.507144	1.00981	0.485536	-0.0116794	-0.244576	0	-0.143231	0	0	-0.173717	-0.060507	-0.352971	0.163022	-0.0981071	0	0	-0.095026	0.0506906	-0.117561	-0.207064	-0.244816	0.0808963	0.53738	1.5708	0	0	-0.0349337	-0.41304	0.161102	1.20805	1.35732	0	0
0.11	0.377358	1.40865	1.28202	0.578098	-0.492234	1.00679	0.490594	-0.00873794	-0.243241	0	-0.137899	0	0	-0.181582	-0.0669066	-0.356419	0.181071	-0.0963642	0	0	-0.0976418	0.0537236	-0.116095	-0.205945	-0.247177	0.0868336	0.530863	1.5708	0	0	-0.0266178	-0.411496	0.163905	1.20803	1.36367	0	0
0.12	0.389973	1.40979	1.27243	0.578301	-0.476994	1.00423	0.494736	-0.00447937	-0.238001	0	-0.138594	0	0	-0.191027	-0.073815	-0.355675	0.197292	-0.097622	0	0	-0.101164	0.0583327	-0.11475	-0.205268	-0.248936	0.0881202	0.525576	1.5708	0	0	-0.0188948	-0.410389	0.168835	1.20621	1.36425	0	0
0.13	0.414758	1.41234	1.25093	0.578434	-0.461324	1.00215	0.495377	0.0012133	-0.229035	0	-0.14123	0	0	-0.201322	-0.0828921	-0.358784	0.217037	-0.0989598	0	0	-0.106446	0.0648099	-0.113977	-0.203709	-0.25193	0.0926678	0.51987	1.5708	0	0	-0.0131628	-0.407221	0.170801	1.20271	1.36954	0	0
0.14	0.44835	1.41494	1.22044	0.578514	-0.445265	1.00043	0.493865	0.0084908	-0.219039	0	-0.148306	0	0	-0.211327	-0.0932676	-0.362898	0.238726	-0.102549	0	0	-0.111799	0.0728666	-0.113626	-0.201974	-0.255698	0.0977836	0.514993	1.5708	0	0	-0.00997902	-0.402747	0.171078	1.19811	1.37521	0	0
0.15	0.488597	1.41725	1.18424	0.578494	-0.428655	0.998897	0.489346	0.0169211	-0.207713	0	-0.160256	0	0	-0.220262	-0.105028	-0.366809	0.263042	-0.109368	0	0	-0.116058	0.0821044	-0.114969	-0.201152	-0.260072	0.103052	0.511693	1.5708	0	0	-0.00997357	-0.397156	0.169476	1.19252	1.38031	0	0
0.16	0.535245	1.41889	1.1425	0.578411	-0.411568	0.997551	0.482242	0.0266188	-0.195208	0	-0.183037	0	0	-0.227163	-0.118483	-0.370306	0.291024	-0.121237	0	0	-0.118884	0.0924687	-0.11769	-0.201759	-0.265256	0.109045	0.510341	1.5708	0	0	-0.0128938	-0.39002	0.165479	1.18574	1.38528	0	0
0.17	0.595511	1.41871	1.08675	0.578268	-0.394282	0.996496	0.474248	0.0385947	-0.183242	0	-0.268151	0	0	-0.230409	-0.135482	-0.375549	0.325809	-0.161007	0	0	-0.12032	0.106334	-0.122795	-0.203579	-0.277344	0.132834	0.509703	1.5708	0	0	-0.0207131	-0.375954	0.148855	1.1762	1.4019	0	0
0.18	0.637676	1.41443	1.05124	0.578053	-0.37704	0.995703	0.478061	0.0460118	-0.188671	0.0242048	-0.30102	0	0	-0.225503	-0.15067	-0.364333	0.361899	-0.194658	0	0	-0.116452	0.118994	-0.123847	-0.204093	-0.278426	0.123591	0.50998	1.5708	0	0	-0.0224608	-0.3653	0.147692	1.16183	1.40308	0	0
0.19	0.676771	1.40808	1.01846	0.577755	-0.359985	0.995301	0.488542	0.0512483	-0.206011	0.0693537	-0.306169	0	0	-0.215115	-0.165623	-0.343189	0.40322	-0.223654	0	0	-0.110655	0.133114	-0.126143	-0.204571	-0.282137	0.120101	0.507575	1.5708	0	0	-0.0244242	-0.355022	0.148083	1.14428	1.40291	0	0
0.2	0.709381	1.39856	0.990482	0.577582	-0.34311	0.995222	0.500128	0.057687	-0.219553	0.114883	-0.293363	0	0	-0.198326	-0.180523	-0.313812	0.449626	-0.25603	0	0	-0.101971	0.148416	-0.125749	-0.205894	-0.286064	0.114519	0.506698	1.5708	0	0	-0.0255027	-0.343912	0.150535	1.12347	1.40255	0	0
0.21	0.732629	1.38543	0.969601	0.577611	-0.326629	0.995336	0.51252	0.066759	-0.220009	0.156356	-0.270274	0	0	-0.174038	-0.195054	-0.275512	0.501177	-0.28849	0	0	-0.0902897	0.16475	-0.122599	-0.207843	-0.290565	0.107764	0.507874	1.5708	0	0	-0.0260577	-0.331791	0.154003	1.10026	1.4007	0	0
0.22	0.742232	1.36866	0.960435	0.577821	-0.310665	0.995466	0.528349	0.0777037	-0.208785	0.196592	-0.239366	0	0	-0.141084	-0.207844	-0.226401	0.557457	-0.321888	0	0	-0.0747819	0.181253	-0.117798	-0.210018	-0.295682	0.101062	0.510979	1.5708	0	0	-0.0262069	-0.319223	0.158133	1.07485	1.39805	0	0
0.23	0.744187	1.35111	0.957705	0.578097	-0.295259	0.995674	0.545494	0.0887322	-0.194912	0.236639	-0.207734	0	0	-0.102171	-0.217632	-0.171267	0.618558	-0.354629	0	0	-0.0585732	0.196729	-0.112811	-0.211135	-0.302097	0.0985105	0.516472	1.5708	0	0	-0.0265658	-0.307606	0.162339	1.04969	1.39447	0	0
0.24	0.752402	1.33713	0.949101	0.578314	-0.280342	0.996233	0.556799	0.0990028	-0.18691	0.272313	-0.186142	0	0	-0.0633301	-0.225068	-0.117199	0.683254	-0.383004	0	0	-0.0477167	0.210494	-0.109384	-0.209015	-0.309858	0.103335	0.523453	1.5708	0	0	-0.0271899	-0.298043	0.165443	1.02726	1.38971	0	0
0.25	0.762433	1.32601	0.941624	0.578334	-0.265627	0.996905	0.562243	0.106312	-0.190997	0.30163	-0.160765	0	0	-0.023432	-0.230694	-0.0654938	0.750001	-0.4163	0	0	-0.0380487	0.221344	-0.111586	-0.197259	-0.346658	0.228395	0.535596	1.43841	0	0	-0.0296827	-0.292201	0.169351	1.0073	1.38016	0	0
0.26	0.782288	1.32039	0.928559	0.57811	-0.251011	0.998127	0.556096	0.110899	-0.206031	0.319825	-0.139735	0	0	0.0129264	-0.234637	-0.0165817	0.815244	-0.448321	0	0	-0.0353265	0.230003	-0.113454	-0.198842	-0.319507	0.108138	0.535604	1.5708	0	0	-0.028119	-0.28897	0.179029	0.987922	1.36793	0	0
0.27	0.812041	1.31989	0.909005	0.577561	-0.236461	0.999902	0.538939	0.113214	-0.227332	0.32771	-0.118774	0	0	0.0444424	-0.236395	0.0306243	0.878015	-0.456611	0	0	-0.0376026	0.236277	-0.118483	-0.194123	-0.319689	0.0973551	0.544149	1.5708	0	0	-0.0225175	-0.296089	0.208692	0.969143	1.33455	0	0
0.28	0.841032	1.32353	0.891704	0.576778	-0.221996	1.00218	0.514816	0.113278	-0.24762	0.327273	-0.107073	0	0	0.0725716	-0.234629	0.0719493	0.937794	-0.438619	0	0	-0.0430161	0.238612	-0.124704	-0.187123	-0.32036	0.0942569	0.551306	1.5708	0	0	-0.017944	-0.299391	0.227804	0.95	1.31777	0	0
0.29	0.862177	1.33027	0.882331	0.57591	-0.207646	1.00484	0.488769	0.110632	-0.265377	0.323772	-0.096458	0	0	0.0987439	-0.22856	0.10595	0.993894	-0.39801	0	0	-0.0493262	0.236447	-0.129708	-0.181184	-0.319021	0.0862489	0.559948	1.5708	0	0	-0.0113428	-0.304981	0.253024	0.930476	1.29686	0	0
0.3	0.874057	1.33831	0.880957	0.575135	-0.19337	1.00775	0.463451	0.10672	-0.279064	0.319266	-0.0878508	0	0	0.124434	-0.219532	0.13188	1.04678	-0.346788	0	0	-0.0547797	0.230865	-0.132405	-0.176535	-0.316056	0.0742002	0.569878	1.5708	0	0	-0.00400631	-0.310979	0.280491	0.910151	1.27677	0	0
0.31	0.878808	1.34698	0.884362	0.574559	-0.179197	1.01094	0.439083	0.102704	-0.28825	0.314334	-0.0811512	0	0	0.149735	-0.208778	0.150141	1.09676	-0.292562	0	0	-0.0597979	0.223116	-0.131921	-0.172474	-0.312091	0.0599421	0.580219	1.5708	0	0	0.00367693	-0.316419	0.307714	0.889154	1.26053	0	0
0.32	0.877402	1.35599	0.890975	0.574244	-0.165078	1.01441	0.414511	0.0992448	-0.293717	0.307418	-0.0773755	0	0	0.174385	-0.197388	0.160554	1.14206	-0.251777	0	0	-0.0644437	0.213634	-0.12854	-0.167815	-0.309725	0.0534036	0.590295	1.5708	0	0	0.00909344	-0.319292	0.327093	0.868484	1.25425	0	0
0.33	0.873737	1.36517	0.897323	0.574122	-0.151027	1.01812	0.389087	0.0964542	-0.298215	0.298737	-0.0758054	0	0	0.197523	-0.186098	0.165255	1.18194	-0.207116	0	0	-0.0689543	0.203336	-0.123304	-0.160219	-0.331988	0.12843	0.607834	1.46737	0	0	0.0144368	-0.324562	0.351278	0.849037	1.24446	0	0
0.34	0.868313	1.37559	0.90376	0.574158	-0.137085	1.02212	0.362433	0.0932784	-0.302212	0.289698	-0.0776474	0	0	0.21869	-0.17453	0.16511	1.21492	-0.164464	0	0	-0.0755496	0.1926	-0.111833	-0.165386	-0.295255	0.00310895	0.620653	1.5708	0	0	0.0271877	-0.336523	0.399897	0.830362	1.21502	0	0
0.35	0.859902	1.38556	0.910536	0.574284	-0.123068	1.02615	0.335452	0.0907968	-0.303376	0.279282	-0.0808529	0	0	0.238971	-0.164557	0.158973	1.24148	-0.132741	0	0	-0.081024	0.181235	-0.102122	-0.163487	-0.29029	-0.0127523	0.637619	1.5708	0	0	0.029534	-0.341165	0.418404	0.815551	1.21178	0	0
0.36	0.852139	1.39609	0.915774	0.574335	-0.109113	1.03026	0.307228	0.0883272	-0.303123	0.267006	-0.0857622	0	0	0.257893	-0.155493	0.149603	1.26233	-0.104092	0	0	-0.0873057	0.169869	-0.0929335	-0.160802	-0.286385	-0.0243211	0.655662	1.5708	0	0	0.0288302	-0.345337	0.430631	0.803561	1.21355	0	0
0.37	0.841937	1.40578	0.921447	0.574511	-0.0951029	1.03423	0.279785	0.0867944	-0.300635	0.25433	-0.0918788	0	0	0.276942	-0.148887	0.135518	1.2783	-0.0763551	0	0	-0.0924628	0.158634	-0.0832893	-0.157765	-0.283496	-0.0313326	0.674283	1.5708	0	0	0.0245718	-0.349296	0.43677	0.794435	1.21718	0	0
0.38	0.829924	1.4144	0.927399	0.574767	-0.0811512	1.03805	0.254169	0.0857443	-0.297701	0.242691	-0.0993999	0	0	0.296502	-0.145057	0.117372	1.28986	-0.0497599	0	0	-0.0964833	0.147916	-0.0734687	-0.154378	-0.281341	-0.0355774	0.693569	1.5708	0	0	0.0173938	-0.352674	0.436669	0.787703	1.21982	0	0
0.39	0.811829	1.42191	0.940929	0.574769	-0.0674104	1.04168	0.231471	0.0830496	-0.298542	0.234163	-0.0980571	0	0	0.318032	-0.141547	0.0990732	1.29717	-0.0422487	0	0	-0.0987796	0.137492	-0.0670283	-0.148955	-0.281279	-0.0320085	0.711135	1.5708	0	0	0.00585418	-0.352966	0.422379	0.782504	1.22909	0	0
0.4	0.817419	1.43277	0.930809	0.5746	-0.0538336	1.04555	0.202449	0.0810485	-0.299212	0.221658	-0.114801	0	0	0.333512	-0.141014	0.0751652	1.29913	-0.00672401	0	0	-0.108142	0.128822	-0.0595051	-0.145081	-0.282882	-0.028791	0.734824	1.5708	0	0	-0.00149378	-0.357733	0.422255	0.779851	1.22186	0	0
